<mxfile host="app.diagrams.net" modified="2023-08-11T07:08:04.707Z" agent="Mozilla/5.0 (Macintosh; Intel Mac OS X 10_15_7) AppleWebKit/605.1.15 (KHTML, like Gecko) Version/16.6 Safari/605.1.15" version="21.6.5" etag="MKWV9COoRPJdad0RXEXg" type="github">
  <diagram name="Page-1" id="az5hvsW0u-QaItU4xrs6">
    <mxGraphModel>
      <root>
        <mxCell id="0" />
        <mxCell id="1" parent="0" />
      </root>
    </mxGraphModel>
  </diagram>
</mxfile>
